<mxfile host="app.diagrams.net" modified="2024-04-03T19:57:09.218Z" agent="Mozilla/5.0 (Windows NT 10.0; Win64; x64) AppleWebKit/537.36 (KHTML, like Gecko) Chrome/123.0.0.0 Safari/537.36" etag="o2q2FdFQpoOPZjm6uX7o" version="24.2.2" type="device">
  <diagram name="Página-1" id="0zuC6YH8tzsMG8Il_yyP">
    <mxGraphModel dx="880" dy="468" grid="1" gridSize="10" guides="1" tooltips="1" connect="1" arrows="1" fold="1" page="1" pageScale="1" pageWidth="827" pageHeight="1169" math="0" shadow="0">
      <root>
        <mxCell id="0" />
        <mxCell id="1" parent="0" />
        <mxCell id="EzWL3zwuSQGF6gbYUdiq-4" style="edgeStyle=orthogonalEdgeStyle;rounded=0;orthogonalLoop=1;jettySize=auto;html=1;entryX=0;entryY=0.5;entryDx=0;entryDy=0;" edge="1" parent="1" source="EzWL3zwuSQGF6gbYUdiq-1" target="EzWL3zwuSQGF6gbYUdiq-3">
          <mxGeometry relative="1" as="geometry" />
        </mxCell>
        <mxCell id="EzWL3zwuSQGF6gbYUdiq-1" value="diretor" style="whiteSpace=wrap;html=1;align=center;" vertex="1" parent="1">
          <mxGeometry x="150" y="110" width="100" height="40" as="geometry" />
        </mxCell>
        <mxCell id="EzWL3zwuSQGF6gbYUdiq-5" style="edgeStyle=orthogonalEdgeStyle;rounded=0;orthogonalLoop=1;jettySize=auto;html=1;entryX=1;entryY=0.5;entryDx=0;entryDy=0;" edge="1" parent="1" source="EzWL3zwuSQGF6gbYUdiq-2" target="EzWL3zwuSQGF6gbYUdiq-3">
          <mxGeometry relative="1" as="geometry" />
        </mxCell>
        <mxCell id="EzWL3zwuSQGF6gbYUdiq-2" value="departamento" style="whiteSpace=wrap;html=1;align=center;" vertex="1" parent="1">
          <mxGeometry x="490" y="110" width="100" height="40" as="geometry" />
        </mxCell>
        <mxCell id="EzWL3zwuSQGF6gbYUdiq-3" value="gerenciar" style="shape=rhombus;perimeter=rhombusPerimeter;whiteSpace=wrap;html=1;align=center;" vertex="1" parent="1">
          <mxGeometry x="310" y="100" width="120" height="60" as="geometry" />
        </mxCell>
        <mxCell id="EzWL3zwuSQGF6gbYUdiq-11" style="edgeStyle=orthogonalEdgeStyle;rounded=0;orthogonalLoop=1;jettySize=auto;html=1;entryX=0;entryY=0.5;entryDx=0;entryDy=0;" edge="1" parent="1" source="EzWL3zwuSQGF6gbYUdiq-6" target="EzWL3zwuSQGF6gbYUdiq-1">
          <mxGeometry relative="1" as="geometry" />
        </mxCell>
        <mxCell id="EzWL3zwuSQGF6gbYUdiq-6" value="endereço" style="ellipse;whiteSpace=wrap;html=1;align=center;" vertex="1" parent="1">
          <mxGeometry x="10" y="90" width="100" height="40" as="geometry" />
        </mxCell>
        <mxCell id="EzWL3zwuSQGF6gbYUdiq-7" value="nome" style="ellipse;whiteSpace=wrap;html=1;align=center;" vertex="1" parent="1">
          <mxGeometry x="30" y="40" width="100" height="40" as="geometry" />
        </mxCell>
        <mxCell id="EzWL3zwuSQGF6gbYUdiq-13" style="edgeStyle=orthogonalEdgeStyle;rounded=0;orthogonalLoop=1;jettySize=auto;html=1;entryX=0.75;entryY=0;entryDx=0;entryDy=0;" edge="1" parent="1" source="EzWL3zwuSQGF6gbYUdiq-8" target="EzWL3zwuSQGF6gbYUdiq-1">
          <mxGeometry relative="1" as="geometry" />
        </mxCell>
        <mxCell id="EzWL3zwuSQGF6gbYUdiq-8" value="cpf" style="ellipse;whiteSpace=wrap;html=1;align=center;fontStyle=4;" vertex="1" parent="1">
          <mxGeometry x="170" y="30" width="100" height="40" as="geometry" />
        </mxCell>
        <mxCell id="EzWL3zwuSQGF6gbYUdiq-10" style="edgeStyle=orthogonalEdgeStyle;rounded=0;orthogonalLoop=1;jettySize=auto;html=1;entryX=0.5;entryY=1;entryDx=0;entryDy=0;" edge="1" parent="1" source="EzWL3zwuSQGF6gbYUdiq-9" target="EzWL3zwuSQGF6gbYUdiq-1">
          <mxGeometry relative="1" as="geometry" />
        </mxCell>
        <mxCell id="EzWL3zwuSQGF6gbYUdiq-9" value="telefone" style="ellipse;shape=doubleEllipse;margin=3;whiteSpace=wrap;html=1;align=center;" vertex="1" parent="1">
          <mxGeometry x="10" y="150" width="100" height="40" as="geometry" />
        </mxCell>
        <mxCell id="EzWL3zwuSQGF6gbYUdiq-12" style="edgeStyle=orthogonalEdgeStyle;rounded=0;orthogonalLoop=1;jettySize=auto;html=1;entryX=0.11;entryY=-0.025;entryDx=0;entryDy=0;entryPerimeter=0;" edge="1" parent="1" source="EzWL3zwuSQGF6gbYUdiq-7" target="EzWL3zwuSQGF6gbYUdiq-1">
          <mxGeometry relative="1" as="geometry" />
        </mxCell>
        <mxCell id="EzWL3zwuSQGF6gbYUdiq-14" value="telefone" style="ellipse;shape=doubleEllipse;margin=3;whiteSpace=wrap;html=1;align=center;" vertex="1" parent="1">
          <mxGeometry x="550" y="190" width="100" height="40" as="geometry" />
        </mxCell>
        <mxCell id="EzWL3zwuSQGF6gbYUdiq-15" style="edgeStyle=orthogonalEdgeStyle;rounded=0;orthogonalLoop=1;jettySize=auto;html=1;entryX=0.67;entryY=1;entryDx=0;entryDy=0;entryPerimeter=0;" edge="1" parent="1" source="EzWL3zwuSQGF6gbYUdiq-14" target="EzWL3zwuSQGF6gbYUdiq-2">
          <mxGeometry relative="1" as="geometry" />
        </mxCell>
        <mxCell id="EzWL3zwuSQGF6gbYUdiq-17" style="edgeStyle=orthogonalEdgeStyle;rounded=0;orthogonalLoop=1;jettySize=auto;html=1;entryX=0.5;entryY=0;entryDx=0;entryDy=0;" edge="1" parent="1" source="EzWL3zwuSQGF6gbYUdiq-16" target="EzWL3zwuSQGF6gbYUdiq-2">
          <mxGeometry relative="1" as="geometry" />
        </mxCell>
        <mxCell id="EzWL3zwuSQGF6gbYUdiq-16" value="codigo" style="ellipse;whiteSpace=wrap;html=1;align=center;fontStyle=4;" vertex="1" parent="1">
          <mxGeometry x="480" y="30" width="100" height="40" as="geometry" />
        </mxCell>
        <mxCell id="EzWL3zwuSQGF6gbYUdiq-20" style="edgeStyle=orthogonalEdgeStyle;rounded=0;orthogonalLoop=1;jettySize=auto;html=1;entryX=1;entryY=0.25;entryDx=0;entryDy=0;" edge="1" parent="1" source="EzWL3zwuSQGF6gbYUdiq-18" target="EzWL3zwuSQGF6gbYUdiq-2">
          <mxGeometry relative="1" as="geometry">
            <mxPoint x="650" y="120" as="targetPoint" />
          </mxGeometry>
        </mxCell>
        <mxCell id="EzWL3zwuSQGF6gbYUdiq-18" value="nome" style="ellipse;whiteSpace=wrap;html=1;align=center;" vertex="1" parent="1">
          <mxGeometry x="640" y="70" width="100" height="40" as="geometry" />
        </mxCell>
        <mxCell id="EzWL3zwuSQGF6gbYUdiq-22" style="edgeStyle=orthogonalEdgeStyle;rounded=0;orthogonalLoop=1;jettySize=auto;html=1;entryX=1;entryY=0.75;entryDx=0;entryDy=0;" edge="1" parent="1" source="EzWL3zwuSQGF6gbYUdiq-21" target="EzWL3zwuSQGF6gbYUdiq-2">
          <mxGeometry relative="1" as="geometry" />
        </mxCell>
        <mxCell id="EzWL3zwuSQGF6gbYUdiq-21" value="sala" style="ellipse;whiteSpace=wrap;html=1;align=center;" vertex="1" parent="1">
          <mxGeometry x="650" y="130" width="100" height="40" as="geometry" />
        </mxCell>
      </root>
    </mxGraphModel>
  </diagram>
</mxfile>
